<svg width="640" height="360" viewBox="0 0 640 360" fill="none" xmlns="http://www.w3.org/2000/svg">
<rect width="640" height="360" fill="white"/>
<path d="M109.683 224.542C104.328 219.872 100.094 213.646 96.9814 205.863C93.9306 198.019 92.4052 189.769 92.4052 181.115C92.4052 172.274 93.9306 164.087 96.9814 156.553C100.032 148.957 104.266 142.824 109.683 138.155L116.687 144.692C112.515 148.677 109.278 153.813 106.974 160.102C104.733 166.39 103.612 173.395 103.612 181.115C103.612 188.835 104.733 195.84 106.974 202.128C109.278 208.416 112.515 213.553 116.687 217.537L109.683 224.542ZM126.037 171.776C130.457 171.153 134.971 169.97 139.579 168.227C144.186 166.484 148.046 164.429 151.159 162.063C154.334 159.697 156.078 157.331 156.389 154.965H131.173L130.24 143.758H194.212V154.965H168.53C168.841 157.331 170.522 159.666 173.573 161.97C176.686 164.211 180.515 166.172 185.06 167.853C189.667 169.534 194.275 170.686 198.882 171.309L192.812 181.582C187.457 180.648 181.947 179.029 176.281 176.725C170.616 174.422 166.039 171.558 162.553 168.133C158.942 171.745 154.241 174.795 148.451 177.286C142.661 179.714 137.213 181.302 132.107 182.049L126.037 171.776ZM198.882 187.652V198.859H168.53V221.273H156.389V198.859H126.037V187.652H198.882ZM208.243 217.537C212.477 213.49 215.777 208.323 218.142 202.034C220.571 195.684 221.785 188.711 221.785 181.115C221.785 173.519 220.571 166.577 218.142 160.289C215.777 153.938 212.477 148.739 208.243 144.692L215.714 138.155C221.131 142.824 225.365 148.957 228.416 156.553C231.466 164.087 232.992 172.274 232.992 181.115C232.992 189.769 231.435 198.019 228.322 205.863C225.271 213.646 221.069 219.872 215.714 224.542L208.243 217.537ZM286.236 143.758V150.763C286.236 155.183 287.761 159.261 290.812 162.997C293.863 166.67 297.692 169.783 302.299 172.336C306.968 174.827 311.731 176.663 316.588 177.846L310.517 188.119C305.101 186.563 299.559 184.166 293.894 180.928C288.29 177.628 283.714 173.581 280.165 168.787C276.616 173.706 272.009 177.877 266.343 181.302C260.678 184.664 255.167 187.092 249.813 188.586L243.743 178.313C248.474 177.13 253.175 175.231 257.845 172.616C262.514 170.001 266.374 166.795 269.425 162.997C272.538 159.199 274.095 155.121 274.095 150.763V143.758H286.236ZM316.121 203.996L317.055 215.203H243.743V203.996H316.121ZM356.768 146.56V157.3H335.755V170.375H355.367V181.582H335.755V195.124C343.911 194.812 351.694 193.878 359.103 192.322L360.036 203.996C355.678 205.054 350.915 205.832 345.748 206.33C340.58 206.829 334.603 207.14 327.817 207.264C325.015 207.264 323.614 205.863 323.614 203.062V146.56H356.768ZM374.512 140.957V169.441H381.516V140.957H393.19V220.806H381.516V182.049H374.512V220.806H362.838V140.957H374.512ZM399.283 170.375C403.952 170.375 408.84 170.188 413.945 169.815C419.113 169.441 423.751 168.849 427.86 168.04C428.732 164.989 429.355 161.565 429.728 157.767H402.551L401.617 146.56H438.507C441.309 146.56 442.709 147.961 442.709 150.763C442.46 157.176 441.62 163.246 440.188 168.974H457.652V140.957H470.26V220.806H457.652V181.115H438.04V176.072C432.499 191.699 421.914 203.342 406.287 211L398.816 200.727C410.147 195.746 418.428 188.399 423.658 178.687C419.86 179.621 415.875 180.337 411.704 180.835C407.594 181.333 403.921 181.582 400.683 181.582L399.283 170.375ZM521.647 143.758V150.763C521.647 155.183 523.172 159.261 526.223 162.997C529.274 166.67 533.103 169.783 537.71 172.336C542.38 174.827 547.143 176.663 551.999 177.846L545.929 188.119C540.512 186.563 534.971 184.166 529.305 180.928C523.701 177.628 519.125 173.581 515.576 168.787C512.028 173.706 507.42 177.877 501.755 181.302C496.089 184.664 490.579 187.092 485.224 188.586L479.154 178.313C483.886 177.13 488.586 175.231 493.256 172.616C497.926 170.001 501.786 166.795 504.836 162.997C507.95 159.199 509.506 155.121 509.506 150.763V143.758H521.647ZM551.532 203.996L552.466 215.203H479.154V203.996H551.532Z" fill="black"/>
</svg>
