<svg width="512" height="512" viewBox="0 0 512 512" fill="none" xmlns="http://www.w3.org/2000/svg">
<rect width="512" height="512" fill="white"/>
<path d="M45.6826 300.542C40.3281 295.872 36.0944 289.646 32.9814 281.863C29.9306 274.019 28.4052 265.769 28.4052 257.115C28.4052 248.274 29.9306 240.087 32.9814 232.553C36.0321 224.957 40.2659 218.824 45.6826 214.155L52.6869 220.692C48.5154 224.677 45.2779 229.813 42.9742 236.102C40.7328 242.39 39.6121 249.395 39.6121 257.115C39.6121 264.835 40.7328 271.84 42.9742 278.128C45.2779 284.416 48.5154 289.553 52.6869 293.537L45.6826 300.542ZM62.037 247.776C66.4575 247.153 70.9714 245.97 75.5787 244.227C80.186 242.484 84.0461 240.429 87.1592 238.063C90.3345 235.697 92.0778 233.331 92.3891 230.965H67.1735L66.2396 219.758H130.212V230.965H104.53C104.841 233.331 106.522 235.666 109.573 237.97C112.686 240.211 116.515 242.172 121.06 243.853C125.667 245.534 130.275 246.686 134.882 247.309L128.812 257.582C123.457 256.648 117.947 255.029 112.281 252.725C106.616 250.422 102.039 247.558 98.5529 244.133C94.9418 247.745 90.2411 250.795 84.4508 253.286C78.6606 255.714 73.2128 257.302 68.1074 258.049L62.037 247.776ZM134.882 263.652V274.859H104.53V297.273H92.3891V274.859H62.037V263.652H134.882ZM144.243 293.537C148.477 289.49 151.777 284.323 154.142 278.034C156.571 271.684 157.785 264.711 157.785 257.115C157.785 249.519 156.571 242.577 154.142 236.289C151.777 229.938 148.477 224.739 144.243 220.692L151.714 214.155C157.131 218.824 161.365 224.957 164.416 232.553C167.466 240.087 168.992 248.274 168.992 257.115C168.992 265.769 167.435 274.019 164.322 281.863C161.271 289.646 157.069 295.872 151.714 300.542L144.243 293.537ZM222.236 219.758V226.763C222.236 231.183 223.761 235.261 226.812 238.997C229.863 242.67 233.692 245.783 238.299 248.336C242.968 250.827 247.731 252.663 252.588 253.846L246.517 264.119C241.101 262.563 235.559 260.166 229.894 256.928C224.29 253.628 219.714 249.581 216.165 244.787C212.616 249.706 208.009 253.877 202.343 257.302C196.678 260.664 191.167 263.092 185.813 264.586L179.743 254.313C184.474 253.13 189.175 251.231 193.845 248.616C198.514 246.001 202.374 242.795 205.425 238.997C208.538 235.199 210.095 231.121 210.095 226.763V219.758H222.236ZM252.121 279.996L253.055 291.203H179.743V279.996H252.121ZM292.768 222.56V233.3H271.755V246.375H291.367V257.582H271.755V271.124C279.911 270.812 287.694 269.878 295.103 268.322L296.036 279.996C291.678 281.054 286.915 281.832 281.748 282.33C276.58 282.829 270.603 283.14 263.817 283.264C261.015 283.264 259.614 281.863 259.614 279.062V222.56H292.768ZM310.512 216.957V245.441H317.516V216.957H329.19V296.806H317.516V258.049H310.512V296.806H298.838V216.957H310.512ZM335.283 246.375C339.952 246.375 344.84 246.188 349.945 245.815C355.113 245.441 359.751 244.849 363.86 244.04C364.732 240.989 365.355 237.565 365.728 233.767H338.551L337.617 222.56H374.507C377.309 222.56 378.709 223.961 378.709 226.763C378.46 233.176 377.62 239.246 376.188 244.974H393.652V216.957H406.26V296.806H393.652V257.115H374.04V252.072C368.499 267.699 357.914 279.342 342.287 287L334.816 276.727C346.147 271.746 354.428 264.399 359.658 254.687C355.86 255.621 351.875 256.337 347.704 256.835C343.594 257.333 339.921 257.582 336.683 257.582L335.283 246.375ZM457.647 219.758V226.763C457.647 231.183 459.172 235.261 462.223 238.997C465.274 242.67 469.103 245.783 473.71 248.336C478.38 250.827 483.143 252.663 487.999 253.846L481.929 264.119C476.512 262.563 470.971 260.166 465.305 256.928C459.701 253.628 455.125 249.581 451.576 244.787C448.028 249.706 443.42 253.877 437.755 257.302C432.089 260.664 426.579 263.092 421.224 264.586L415.154 254.313C419.886 253.13 424.586 251.231 429.256 248.616C433.926 246.001 437.786 242.795 440.836 238.997C443.95 235.199 445.506 231.121 445.506 226.763V219.758H457.647ZM487.532 279.996L488.466 291.203H415.154V279.996H487.532Z" fill="black"/>
</svg>
