<svg width="640" height="360" viewBox="0 0 640 360" fill="none" xmlns="http://www.w3.org/2000/svg">
<rect width="640" height="360" fill="white"/>
<path d="M84.0204 216.084C79.638 212.262 76.1728 207.166 73.6249 200.796C71.1279 194.375 69.8794 187.623 69.8794 180.54C69.8794 173.304 71.1279 166.603 73.6249 160.437C76.1219 154.22 79.587 149.2 84.0204 145.378L89.7533 150.729C86.3391 153.99 83.6892 158.194 81.8037 163.341C79.9692 168.488 79.052 174.221 79.052 180.54C79.052 186.859 79.9692 192.592 81.8037 197.738C83.6892 202.885 86.3391 207.089 89.7533 210.351L84.0204 216.084ZM97.406 172.896C101.024 172.386 104.719 171.418 108.49 169.991C112.26 168.565 115.42 166.883 117.968 164.947C120.567 163.01 121.994 161.074 122.248 159.137H101.61L100.846 149.965H153.206V159.137H132.185C132.44 161.074 133.816 162.985 136.313 164.87C138.861 166.705 141.995 168.31 145.715 169.686C149.486 171.062 153.257 172.004 157.028 172.514L152.059 180.922C147.677 180.158 143.167 178.833 138.53 176.947C133.892 175.062 130.147 172.718 127.293 169.915C124.338 172.871 120.49 175.368 115.751 177.406C111.012 179.393 106.553 180.693 102.375 181.304L97.406 172.896ZM157.028 185.891V195.063H132.185V213.408H122.248V195.063H97.406V185.891H157.028ZM164.689 210.351C168.155 207.038 170.855 202.809 172.792 197.662C174.779 192.464 175.773 186.757 175.773 180.54C175.773 174.323 174.779 168.641 172.792 163.494C170.855 158.296 168.155 154.041 164.689 150.729L170.804 145.378C175.238 149.2 178.703 154.22 181.2 160.437C183.697 166.603 184.945 173.304 184.945 180.54C184.945 187.623 183.671 194.375 181.124 200.796C178.627 207.166 175.187 212.262 170.804 216.084L164.689 210.351ZM208.268 204.236C203.121 204.236 199.274 202.019 196.726 197.586C194.229 193.152 192.98 186.451 192.98 177.482C192.98 159.392 198.076 150.347 208.268 150.347C216.88 150.347 221.848 156.844 223.173 169.839H228.524V147.672H238.079V213.026H228.524V179.775H223.556C223.352 188.031 221.976 194.171 219.428 198.197C216.931 202.223 213.211 204.236 208.268 204.236ZM208.268 195.445C210.357 195.445 211.886 193.942 212.854 190.935C213.873 187.929 214.383 183.444 214.383 177.482C214.383 171.469 213.873 166.985 212.854 164.029C211.886 161.023 210.357 159.519 208.268 159.519C206.179 159.519 204.624 161.023 203.605 164.029C202.637 166.985 202.153 171.469 202.153 177.482C202.153 183.444 202.637 187.929 203.605 190.935C204.624 193.942 206.179 195.445 208.268 195.445ZM251.838 147.672V213.026H242.283V147.672H251.838ZM292.75 149.965V155.698C292.75 159.316 293.998 162.653 296.495 165.711C298.992 168.717 302.126 171.265 305.897 173.355C309.719 175.393 313.617 176.896 317.592 177.865L312.624 186.273C308.19 184.999 303.655 183.037 299.018 180.387C294.431 177.686 290.686 174.374 287.781 170.45C284.877 174.476 281.106 177.89 276.469 180.693C271.831 183.444 267.321 185.432 262.939 186.655L257.971 178.247C261.843 177.278 265.691 175.724 269.513 173.584C273.335 171.444 276.494 168.819 278.991 165.711C281.539 162.602 282.813 159.265 282.813 155.698V149.965H292.75ZM317.21 199.267L317.974 208.44H257.971V199.267H317.21ZM334.426 151.876V168.31H348.567V151.876H358.504V201.942H327.929C325.636 201.942 324.49 200.796 324.49 198.503V151.876H334.426ZM348.567 192.77V177.482H334.426V192.77H348.567ZM379.143 147.672V213.026H368.824V147.672H379.143ZM400.945 204.236C395.799 204.236 391.951 202.019 389.403 197.586C386.906 193.152 385.658 186.451 385.658 177.482C385.658 159.392 390.754 150.347 400.945 150.347C409.557 150.347 414.526 156.844 415.851 169.839H421.201V147.672H430.756V213.026H421.201V179.775H416.233C416.029 188.031 414.653 194.171 412.105 198.197C409.608 202.223 405.888 204.236 400.945 204.236ZM400.945 195.445C403.035 195.445 404.563 193.942 405.532 190.935C406.551 187.929 407.06 183.444 407.06 177.482C407.06 171.469 406.551 166.985 405.532 164.029C404.563 161.023 403.035 159.519 400.945 159.519C398.856 159.519 397.302 161.023 396.283 164.029C395.314 166.985 394.83 171.469 394.83 177.482C394.83 183.444 395.314 187.929 396.283 190.935C397.302 193.942 398.856 195.445 400.945 195.445ZM444.515 147.672V213.026H434.96V147.672H444.515ZM462.878 151.876V191.623C471.898 191.42 480.179 190.655 487.72 189.33L488.485 198.885C479.873 200.669 469.044 201.688 455.999 201.942C453.706 201.942 452.559 200.796 452.559 198.503V151.876H462.878ZM497.275 166.781V147.672H507.594V213.026H497.275V176.718H478.166V166.781H497.275ZM512.581 196.974C517.371 193.407 521.371 188.846 524.581 183.292C527.792 177.737 529.397 171.724 529.397 165.252V161.43H516.02L515.256 152.258H553.093V161.43H539.334V165.252C539.334 171.673 540.914 177.61 544.073 183.062C547.283 188.515 551.309 193.025 556.15 196.592L549.271 203.853C546.621 201.764 543.971 199.063 541.321 195.751C538.671 192.439 536.378 188.744 534.442 184.668C532.556 188.795 530.314 192.541 527.715 195.904C525.167 199.267 522.543 202.044 519.842 204.236L512.581 196.974ZM571.82 147.672V213.026H561.501V147.672H571.82Z" fill="black"/>
</svg>
