<svg width="512" height="512" viewBox="0 0 512 512" fill="none" xmlns="http://www.w3.org/2000/svg">
<rect width="512" height="512" fill="white"/>
<path d="M30.998 290.544C26.8288 286.908 23.5321 282.06 21.1081 276C18.7326 269.892 17.5448 263.468 17.5448 256.73C17.5448 249.845 18.7326 243.47 21.1081 237.604C23.4836 231.69 26.7803 226.914 30.998 223.278L36.4521 228.369C33.2039 231.471 30.6829 235.471 28.8892 240.368C27.1439 245.264 26.2712 250.718 26.2712 256.73C26.2712 262.741 27.1439 268.195 28.8892 273.092C30.6829 277.988 33.2039 281.988 36.4521 285.09L30.998 290.544ZM43.7326 249.458C47.1747 248.973 50.6895 248.052 54.277 246.694C57.8645 245.337 60.8703 243.737 63.2943 241.895C65.7668 240.052 67.1242 238.21 67.3666 236.368H47.7322L47.005 227.641H96.8183V236.368H76.8203C77.0627 238.21 78.3716 240.028 80.7472 241.822C83.1712 243.567 86.1527 245.094 89.6917 246.403C93.2793 247.712 96.8668 248.609 100.454 249.094L95.7275 257.093C91.5582 256.366 87.2677 255.105 82.856 253.312C78.4444 251.518 74.8811 249.288 72.1662 246.621C69.3543 249.433 65.6941 251.809 61.1854 253.748C56.6768 255.639 52.4348 256.875 48.4594 257.457L43.7326 249.458ZM100.454 261.82V270.546H76.8203V287.999H67.3666V270.546H43.7326V261.82H100.454ZM107.743 285.09C111.04 281.939 113.609 277.915 115.452 273.019C117.342 268.074 118.288 262.644 118.288 256.73C118.288 250.815 117.342 245.409 115.452 240.513C113.609 235.568 111.04 231.52 107.743 228.369L113.561 223.278C117.779 226.914 121.075 231.69 123.451 237.604C125.826 243.47 127.014 249.845 127.014 256.73C127.014 263.468 125.802 269.892 123.378 276C121.003 282.06 117.73 286.908 113.561 290.544L107.743 285.09ZM149.202 279.273C144.306 279.273 140.646 277.164 138.222 272.946C135.846 268.728 134.658 262.353 134.658 253.821C134.658 236.61 139.506 228.005 149.202 228.005C157.396 228.005 162.122 234.186 163.383 246.549H168.473V225.46H177.563V287.636H168.473V256.002H163.746C163.553 263.856 162.244 269.698 159.82 273.528C157.444 277.358 153.905 279.273 149.202 279.273ZM149.202 270.91C151.19 270.91 152.644 269.48 153.566 266.619C154.535 263.759 155.02 259.493 155.02 253.821C155.02 248.1 154.535 243.834 153.566 241.022C152.644 238.162 151.19 236.732 149.202 236.732C147.215 236.732 145.736 238.162 144.766 241.022C143.845 243.834 143.385 248.1 143.385 253.821C143.385 259.493 143.845 263.759 144.766 266.619C145.736 269.48 147.215 270.91 149.202 270.91ZM190.653 225.46V287.636H181.563V225.46H190.653ZM229.575 227.641V233.095C229.575 236.538 230.763 239.713 233.139 242.622C235.514 245.482 238.496 247.906 242.083 249.894C245.719 251.833 249.428 253.263 253.209 254.184L248.482 262.184C244.265 260.972 239.95 259.105 235.538 256.584C231.175 254.015 227.612 250.863 224.848 247.13C222.085 250.96 218.498 254.209 214.086 256.875C209.674 259.493 205.384 261.384 201.214 262.547L196.488 254.548C200.172 253.627 203.832 252.148 207.468 250.112C211.104 248.076 214.11 245.579 216.486 242.622C218.91 239.665 220.122 236.489 220.122 233.095V227.641H229.575ZM252.846 274.546L253.573 283.272H196.488V274.546H252.846ZM269.225 229.459V245.094H282.678V229.459H292.132V277.091H263.044C260.862 277.091 259.771 276 259.771 273.819V229.459H269.225ZM282.678 268.365V253.821H269.225V268.365H282.678ZM311.766 225.46V287.636H301.949V225.46H311.766ZM332.508 279.273C327.612 279.273 323.952 277.164 321.528 272.946C319.152 268.728 317.964 262.353 317.964 253.821C317.964 236.61 322.812 228.005 332.508 228.005C340.701 228.005 345.428 234.186 346.689 246.549H351.779V225.46H360.869V287.636H351.779V256.002H347.052C346.858 263.856 345.549 269.698 343.125 273.528C340.75 277.358 337.211 279.273 332.508 279.273ZM332.508 270.91C334.496 270.91 335.95 269.48 336.872 266.619C337.841 263.759 338.326 259.493 338.326 253.821C338.326 248.1 337.841 243.834 336.872 241.022C335.95 238.162 334.496 236.732 332.508 236.732C330.521 236.732 329.042 238.162 328.072 241.022C327.151 243.834 326.691 248.1 326.691 253.821C326.691 259.493 327.151 263.759 328.072 266.619C329.042 269.48 330.521 270.91 332.508 270.91ZM373.959 225.46V287.636H364.869V225.46H373.959ZM391.429 229.459V267.274C400.01 267.08 407.888 266.353 415.063 265.092L415.79 274.182C407.597 275.879 397.295 276.849 384.884 277.091C382.702 277.091 381.611 276 381.611 273.819V229.459H391.429ZM424.153 243.64V225.46H433.97V287.636H424.153V253.094H405.973V243.64H424.153ZM438.714 272.364C443.271 268.971 447.077 264.632 450.131 259.347C453.185 254.063 454.712 248.342 454.712 242.186V238.55H441.986L441.259 229.823H477.256V238.55H464.166V242.186C464.166 248.294 465.669 253.942 468.675 259.129C471.729 264.317 475.559 268.607 480.164 272.001L473.62 278.909C471.099 276.922 468.578 274.352 466.057 271.201C463.536 268.05 461.354 264.535 459.512 260.656C457.718 264.583 455.585 268.147 453.112 271.346C450.688 274.546 448.192 277.188 445.622 279.273L438.714 272.364ZM495.072 225.46V287.636H485.255V225.46H495.072Z" fill="black"/>
</svg>
