<svg width="640" height="360" viewBox="0 0 640 360" fill="none" xmlns="http://www.w3.org/2000/svg">
<rect width="640" height="360" fill="white"/>
<path d="M109.683 224.542C104.328 219.872 100.094 213.646 96.9814 205.863C93.9306 198.019 92.4052 189.769 92.4052 181.115C92.4052 172.274 93.9306 164.087 96.9814 156.553C100.032 148.957 104.266 142.824 109.683 138.155L116.687 144.692C112.515 148.677 109.278 153.813 106.974 160.102C104.733 166.39 103.612 173.395 103.612 181.115C103.612 188.835 104.733 195.84 106.974 202.128C109.278 208.416 112.515 213.553 116.687 217.537L109.683 224.542ZM126.037 171.776C130.457 171.153 134.971 169.97 139.579 168.227C144.186 166.484 148.046 164.429 151.159 162.063C154.334 159.697 156.078 157.331 156.389 154.965H131.173L130.24 143.758H194.212V154.965H168.53C168.841 157.331 170.522 159.666 173.573 161.97C176.686 164.211 180.515 166.172 185.06 167.853C189.667 169.534 194.275 170.686 198.882 171.309L192.812 181.582C187.457 180.648 181.947 179.029 176.281 176.725C170.616 174.422 166.039 171.558 162.553 168.133C158.942 171.745 154.241 174.795 148.451 177.286C142.661 179.714 137.213 181.302 132.107 182.049L126.037 171.776ZM198.882 187.652V198.859H168.53V221.273H156.389V198.859H126.037V187.652H198.882ZM208.243 217.537C212.477 213.49 215.777 208.323 218.142 202.034C220.571 195.684 221.785 188.711 221.785 181.115C221.785 173.519 220.571 166.577 218.142 160.289C215.777 153.938 212.477 148.739 208.243 144.692L215.714 138.155C221.131 142.824 225.365 148.957 228.416 156.553C231.466 164.087 232.992 172.274 232.992 181.115C232.992 189.769 231.435 198.019 228.322 205.863C225.271 213.646 221.069 219.872 215.714 224.542L208.243 217.537ZM266.156 210.066C251.214 210.066 243.743 199.17 243.743 177.379C243.743 155.277 251.214 144.225 266.156 144.225C273.379 144.225 278.827 147.027 282.5 152.631C286.236 158.172 288.103 166.421 288.103 177.379C288.103 199.17 280.788 210.066 266.156 210.066ZM266.156 199.326C272.694 199.326 275.963 192.01 275.963 177.379C275.963 162.748 272.694 155.432 266.156 155.432C259.308 155.432 255.883 162.748 255.883 177.379C255.883 192.01 259.308 199.326 266.156 199.326ZM313.319 140.957V220.806H300.711V140.957H313.319ZM364.706 143.758V150.763C364.706 155.183 366.231 159.261 369.282 162.997C372.333 166.67 376.162 169.783 380.769 172.336C385.439 174.827 390.202 176.663 395.058 177.846L388.988 188.119C383.571 186.563 378.03 184.166 372.364 180.928C366.761 177.628 362.184 173.581 358.636 168.787C355.087 173.706 350.479 177.877 344.814 181.302C339.148 184.664 333.638 187.092 328.283 188.586L322.213 178.313C326.945 177.13 331.646 175.231 336.315 172.616C340.985 170.001 344.845 166.795 347.896 162.997C351.009 159.199 352.565 155.121 352.565 150.763V143.758H364.706ZM364.706 184.384V205.397H394.591L395.525 216.603H322.213V205.397H352.565V184.384H364.706ZM417.027 178.78L415.626 156.366H404.886L403.952 145.159H469.793V156.366H458.586L457.185 178.78H470.26V189.987H403.952V178.78H417.027ZM428.701 156.366L430.102 178.78H444.577L445.978 156.366H428.701ZM473.062 203.996L473.996 215.203H400.683V203.996H473.062ZM545.929 145.159V156.833H497.365V163.837H544.528V174.577H497.365V181.582H546.862V193.256H488.96C486.158 193.256 484.757 191.855 484.757 189.053V145.159H545.929ZM551.532 204.463L552.466 215.203H479.154V204.463H551.532Z" fill="black"/>
</svg>
