<svg width="512" height="512" viewBox="0 0 512 512" fill="none" xmlns="http://www.w3.org/2000/svg">
<rect width="512" height="512" fill="white"/>
<path d="M45.6826 300.542C40.3281 295.872 36.0944 289.646 32.9814 281.863C29.9306 274.019 28.4052 265.769 28.4052 257.115C28.4052 248.274 29.9306 240.087 32.9814 232.553C36.0321 224.957 40.2659 218.824 45.6826 214.155L52.6869 220.692C48.5154 224.677 45.2779 229.813 42.9742 236.102C40.7328 242.39 39.6121 249.395 39.6121 257.115C39.6121 264.835 40.7328 271.84 42.9742 278.128C45.2779 284.416 48.5154 289.553 52.6869 293.537L45.6826 300.542ZM62.037 247.776C66.4575 247.153 70.9714 245.97 75.5787 244.227C80.186 242.484 84.0461 240.429 87.1592 238.063C90.3345 235.697 92.0778 233.331 92.3891 230.965H67.1735L66.2396 219.758H130.212V230.965H104.53C104.841 233.331 106.522 235.666 109.573 237.97C112.686 240.211 116.515 242.172 121.06 243.853C125.667 245.534 130.275 246.686 134.882 247.309L128.812 257.582C123.457 256.648 117.947 255.029 112.281 252.725C106.616 250.422 102.039 247.558 98.5529 244.133C94.9418 247.745 90.2411 250.795 84.4508 253.286C78.6606 255.714 73.2128 257.302 68.1074 258.049L62.037 247.776ZM134.882 263.652V274.859H104.53V297.273H92.3891V274.859H62.037V263.652H134.882ZM144.243 293.537C148.477 289.49 151.777 284.323 154.142 278.034C156.571 271.684 157.785 264.711 157.785 257.115C157.785 249.519 156.571 242.577 154.142 236.289C151.777 229.938 148.477 224.739 144.243 220.692L151.714 214.155C157.131 218.824 161.365 224.957 164.416 232.553C167.466 240.087 168.992 248.274 168.992 257.115C168.992 265.769 167.435 274.019 164.322 281.863C161.271 289.646 157.069 295.872 151.714 300.542L144.243 293.537ZM202.156 286.066C187.214 286.066 179.743 275.17 179.743 253.379C179.743 231.277 187.214 220.225 202.156 220.225C209.379 220.225 214.827 223.027 218.5 228.631C222.236 234.172 224.103 242.421 224.103 253.379C224.103 275.17 216.788 286.066 202.156 286.066ZM202.156 275.326C208.694 275.326 211.963 268.01 211.963 253.379C211.963 238.748 208.694 231.432 202.156 231.432C195.308 231.432 191.883 238.748 191.883 253.379C191.883 268.01 195.308 275.326 202.156 275.326ZM249.319 216.957V296.806H236.711V216.957H249.319ZM300.706 219.758V226.763C300.706 231.183 302.231 235.261 305.282 238.997C308.333 242.67 312.162 245.783 316.769 248.336C321.439 250.827 326.202 252.663 331.058 253.846L324.988 264.119C319.571 262.563 314.03 260.166 308.364 256.928C302.761 253.628 298.184 249.581 294.636 244.787C291.087 249.706 286.479 253.877 280.814 257.302C275.148 260.664 269.638 263.092 264.283 264.586L258.213 254.313C262.945 253.13 267.646 251.231 272.315 248.616C276.985 246.001 280.845 242.795 283.896 238.997C287.009 235.199 288.565 231.121 288.565 226.763V219.758H300.706ZM300.706 260.384V281.397H330.591L331.525 292.603H258.213V281.397H288.565V260.384H300.706ZM353.027 254.78L351.626 232.366H340.886L339.952 221.159H405.793V232.366H394.586L393.185 254.78H406.26V265.987H339.952V254.78H353.027ZM364.701 232.366L366.102 254.78H380.577L381.978 232.366H364.701ZM409.062 279.996L409.996 291.203H336.683V279.996H409.062ZM481.929 221.159V232.833H433.365V239.837H480.528V250.577H433.365V257.582H482.862V269.256H424.96C422.158 269.256 420.757 267.855 420.757 265.053V221.159H481.929ZM487.532 280.463L488.466 291.203H415.154V280.463H487.532Z" fill="black"/>
</svg>
