<svg width="640" height="360" viewBox="0 0 640 360" fill="none" xmlns="http://www.w3.org/2000/svg">
<rect width="640" height="360" fill="white"/>
<path d="M109.683 224.542C104.328 219.872 100.094 213.646 96.9814 205.863C93.9306 198.019 92.4052 189.769 92.4052 181.115C92.4052 172.274 93.9306 164.087 96.9814 156.553C100.032 148.957 104.266 142.824 109.683 138.155L116.687 144.692C112.515 148.677 109.278 153.813 106.974 160.102C104.733 166.39 103.612 173.395 103.612 181.115C103.612 188.835 104.733 195.84 106.974 202.128C109.278 208.416 112.515 213.553 116.687 217.537L109.683 224.542ZM126.037 171.776C130.457 171.153 134.971 169.97 139.579 168.227C144.186 166.484 148.046 164.429 151.159 162.063C154.334 159.697 156.078 157.331 156.389 154.965H131.173L130.24 143.758H194.212V154.965H168.53C168.841 157.331 170.522 159.666 173.573 161.97C176.686 164.211 180.515 166.172 185.06 167.853C189.667 169.534 194.275 170.686 198.882 171.309L192.812 181.582C187.457 180.648 181.947 179.029 176.281 176.725C170.616 174.422 166.039 171.558 162.553 168.133C158.942 171.745 154.241 174.795 148.451 177.286C142.661 179.714 137.213 181.302 132.107 182.049L126.037 171.776ZM198.882 187.652V198.859H168.53V221.273H156.389V198.859H126.037V187.652H198.882ZM208.243 217.537C212.477 213.49 215.777 208.323 218.142 202.034C220.571 195.684 221.785 188.711 221.785 181.115C221.785 173.519 220.571 166.577 218.142 160.289C215.777 153.938 212.477 148.739 208.243 144.692L215.714 138.155C221.131 142.824 225.365 148.957 228.416 156.553C231.466 164.087 232.992 172.274 232.992 181.115C232.992 189.769 231.435 198.019 228.322 205.863C225.271 213.646 221.069 219.872 215.714 224.542L208.243 217.537ZM267.09 186.251C262.608 186.251 258.561 185.286 254.95 183.356C251.338 181.426 248.474 178.78 246.358 175.418C244.303 171.994 243.276 168.133 243.276 163.837C243.276 159.541 244.303 155.712 246.358 152.35C248.474 148.926 251.338 146.249 254.95 144.319C258.561 142.389 262.608 141.424 267.09 141.424C271.573 141.424 275.62 142.389 279.231 144.319C282.842 146.249 285.675 148.926 287.73 152.35C289.847 155.712 290.905 159.541 290.905 163.837C290.905 168.133 289.847 171.994 287.73 175.418C285.675 178.78 282.842 181.426 279.231 183.356C275.62 185.286 271.573 186.251 267.09 186.251ZM267.09 174.111C269.954 174.111 272.445 173.145 274.562 171.215C276.741 169.223 277.83 166.764 277.83 163.837C277.83 160.911 276.741 158.483 274.562 156.553C272.445 154.561 269.954 153.564 267.09 153.564C264.226 153.564 261.705 154.561 259.526 156.553C257.409 158.483 256.35 160.911 256.35 163.837C256.35 166.764 257.409 169.223 259.526 171.215C261.705 173.145 264.226 174.111 267.09 174.111ZM313.319 140.957V201.194H300.711V140.957H313.319ZM267.557 193.256V208.198H314.253L315.187 219.872H259.152C256.35 219.872 254.95 218.471 254.95 215.67V193.256H267.557ZM364.239 147.027V157.767H336.689V170.375H360.036V181.582H336.689V195.59C342.79 195.528 348.612 195.248 354.153 194.75C359.694 194.19 364.457 193.536 368.442 192.789L369.376 203.996C360.286 205.988 346.744 207.078 328.75 207.264C325.949 207.264 324.548 205.863 324.548 203.062V147.027H364.239ZM379.182 167.106V140.957H391.789V220.806H379.182V179.247H365.64V167.106H379.182ZM455.784 160.102V154.031H406.754L405.82 143.758H463.722C466.524 143.758 467.925 145.159 467.925 147.961V169.441H418.428V175.511H468.859V185.784H410.49C407.688 185.784 406.287 184.384 406.287 181.582V160.102H455.784ZM473.529 192.789V203.996H443.176V221.273H431.036V203.996H400.683V192.789H473.529ZM501.101 179.714C496.494 179.714 492.384 178.905 488.773 177.286C485.162 175.605 482.329 173.301 480.275 170.375C478.282 167.386 477.286 163.962 477.286 160.102C477.286 156.242 478.282 152.848 480.275 149.922C482.329 146.934 485.162 144.63 488.773 143.011C492.384 141.33 496.494 140.49 501.101 140.49C506.704 140.49 511.498 141.673 515.483 144.039C519.53 146.342 522.301 149.518 523.795 153.564H536.122V140.957H548.73V179.247H536.122V164.771H524.355C523.235 169.254 520.557 172.865 516.324 175.605C512.152 178.344 507.078 179.714 501.101 179.714ZM501.101 168.507C504.401 168.507 507.016 167.76 508.946 166.266C510.876 164.709 511.841 162.655 511.841 160.102C511.841 157.549 510.876 155.526 508.946 154.031C507.016 152.475 504.401 151.697 501.101 151.697C497.801 151.697 495.186 152.475 493.256 154.031C491.326 155.526 490.361 157.549 490.361 160.102C490.361 162.655 491.326 164.709 493.256 166.266C495.186 167.76 497.801 168.507 501.101 168.507ZM548.73 183.45V207.264H500.167V211H549.197L550.131 221.273H492.696C489.894 221.273 488.493 219.872 488.493 217.07V197.458H536.589V193.723H488.493V183.45H548.73Z" fill="black"/>
</svg>
