<svg width="512" height="512" viewBox="0 0 512 512" fill="none" xmlns="http://www.w3.org/2000/svg">
<rect width="512" height="512" fill="white"/>
<path d="M45.6826 300.542C40.3281 295.872 36.0944 289.646 32.9814 281.863C29.9306 274.019 28.4052 265.769 28.4052 257.115C28.4052 248.274 29.9306 240.087 32.9814 232.553C36.0321 224.957 40.2659 218.824 45.6826 214.155L52.6869 220.692C48.5154 224.677 45.2779 229.813 42.9742 236.102C40.7328 242.39 39.6121 249.395 39.6121 257.115C39.6121 264.835 40.7328 271.84 42.9742 278.128C45.2779 284.416 48.5154 289.553 52.6869 293.537L45.6826 300.542ZM62.037 247.776C66.4575 247.153 70.9714 245.97 75.5787 244.227C80.186 242.484 84.0461 240.429 87.1592 238.063C90.3345 235.697 92.0778 233.331 92.3891 230.965H67.1735L66.2396 219.758H130.212V230.965H104.53C104.841 233.331 106.522 235.666 109.573 237.97C112.686 240.211 116.515 242.172 121.06 243.853C125.667 245.534 130.275 246.686 134.882 247.309L128.812 257.582C123.457 256.648 117.947 255.029 112.281 252.725C106.616 250.422 102.039 247.558 98.5529 244.133C94.9418 247.745 90.2411 250.795 84.4508 253.286C78.6606 255.714 73.2128 257.302 68.1074 258.049L62.037 247.776ZM134.882 263.652V274.859H104.53V297.273H92.3891V274.859H62.037V263.652H134.882ZM144.243 293.537C148.477 289.49 151.777 284.323 154.142 278.034C156.571 271.684 157.785 264.711 157.785 257.115C157.785 249.519 156.571 242.577 154.142 236.289C151.777 229.938 148.477 224.739 144.243 220.692L151.714 214.155C157.131 218.824 161.365 224.957 164.416 232.553C167.466 240.087 168.992 248.274 168.992 257.115C168.992 265.769 167.435 274.019 164.322 281.863C161.271 289.646 157.069 295.872 151.714 300.542L144.243 293.537ZM203.09 262.251C198.608 262.251 194.561 261.286 190.95 259.356C187.338 257.426 184.474 254.78 182.358 251.418C180.303 247.994 179.276 244.133 179.276 239.837C179.276 235.541 180.303 231.712 182.358 228.35C184.474 224.926 187.338 222.249 190.95 220.319C194.561 218.389 198.608 217.424 203.09 217.424C207.573 217.424 211.62 218.389 215.231 220.319C218.842 222.249 221.675 224.926 223.73 228.35C225.847 231.712 226.905 235.541 226.905 239.837C226.905 244.133 225.847 247.994 223.73 251.418C221.675 254.78 218.842 257.426 215.231 259.356C211.62 261.286 207.573 262.251 203.09 262.251ZM203.09 250.111C205.954 250.111 208.445 249.145 210.562 247.215C212.741 245.223 213.83 242.764 213.83 239.837C213.83 236.911 212.741 234.483 210.562 232.553C208.445 230.561 205.954 229.564 203.09 229.564C200.226 229.564 197.705 230.561 195.526 232.553C193.409 234.483 192.35 236.911 192.35 239.837C192.35 242.764 193.409 245.223 195.526 247.215C197.705 249.145 200.226 250.111 203.09 250.111ZM249.319 216.957V277.194H236.711V216.957H249.319ZM203.557 269.256V284.198H250.253L251.187 295.872H195.152C192.35 295.872 190.95 294.471 190.95 291.67V269.256H203.557ZM300.239 223.027V233.767H272.689V246.375H296.036V257.582H272.689V271.59C278.79 271.528 284.612 271.248 290.153 270.75C295.694 270.19 300.457 269.536 304.442 268.789L305.376 279.996C296.286 281.988 282.744 283.078 264.75 283.264C261.949 283.264 260.548 281.863 260.548 279.062V223.027H300.239ZM315.182 243.106V216.957H327.789V296.806H315.182V255.247H301.64V243.106H315.182ZM391.784 236.102V230.031H342.754L341.82 219.758H399.722C402.524 219.758 403.925 221.159 403.925 223.961V245.441H354.428V251.511H404.859V261.784H346.49C343.688 261.784 342.287 260.384 342.287 257.582V236.102H391.784ZM409.529 268.789V279.996H379.176V297.273H367.036V279.996H336.683V268.789H409.529ZM437.101 255.714C432.494 255.714 428.384 254.905 424.773 253.286C421.162 251.605 418.329 249.301 416.275 246.375C414.282 243.386 413.286 239.962 413.286 236.102C413.286 232.242 414.282 228.848 416.275 225.922C418.329 222.934 421.162 220.63 424.773 219.011C428.384 217.33 432.494 216.49 437.101 216.49C442.704 216.49 447.498 217.673 451.483 220.039C455.53 222.342 458.301 225.518 459.795 229.564H472.122V216.957H484.73V255.247H472.122V240.771H460.355C459.235 245.254 456.557 248.865 452.324 251.605C448.152 254.344 443.078 255.714 437.101 255.714ZM437.101 244.507C440.401 244.507 443.016 243.76 444.946 242.266C446.876 240.709 447.841 238.655 447.841 236.102C447.841 233.549 446.876 231.526 444.946 230.031C443.016 228.475 440.401 227.697 437.101 227.697C433.801 227.697 431.186 228.475 429.256 230.031C427.326 231.526 426.361 233.549 426.361 236.102C426.361 238.655 427.326 240.709 429.256 242.266C431.186 243.76 433.801 244.507 437.101 244.507ZM484.73 259.45V283.264H436.167V287H485.197L486.131 297.273H428.696C425.894 297.273 424.493 295.872 424.493 293.07V273.458H472.589V269.723H424.493V259.45H484.73Z" fill="black"/>
</svg>
