<svg width="512" height="512" viewBox="0 0 512 512" fill="none" xmlns="http://www.w3.org/2000/svg">
<rect width="512" height="512" fill="white"/>
<path d="M124.683 300.542C119.328 295.872 115.094 289.646 111.981 281.863C108.931 274.019 107.405 265.769 107.405 257.115C107.405 248.274 108.931 240.087 111.981 232.553C115.032 224.957 119.266 218.824 124.683 214.155L131.687 220.692C127.515 224.677 124.278 229.813 121.974 236.102C119.733 242.39 118.612 249.395 118.612 257.115C118.612 264.835 119.733 271.84 121.974 278.128C124.278 284.416 127.515 289.553 131.687 293.537L124.683 300.542ZM141.037 247.776C145.457 247.153 149.971 245.97 154.579 244.227C159.186 242.484 163.046 240.429 166.159 238.063C169.334 235.697 171.078 233.331 171.389 230.965H146.173L145.24 219.758H209.212V230.965H183.53C183.841 233.331 185.522 235.666 188.573 237.97C191.686 240.211 195.515 242.172 200.06 243.853C204.667 245.534 209.275 246.686 213.882 247.309L207.812 257.582C202.457 256.648 196.947 255.029 191.281 252.725C185.616 250.422 181.039 247.558 177.553 244.133C173.942 247.745 169.241 250.795 163.451 253.286C157.661 255.714 152.213 257.302 147.107 258.049L141.037 247.776ZM213.882 263.652V274.859H183.53V297.273H171.389V274.859H141.037V263.652H213.882ZM223.243 293.537C227.477 289.49 230.777 284.323 233.142 278.034C235.571 271.684 236.785 264.711 236.785 257.115C236.785 249.519 235.571 242.577 233.142 236.289C230.777 229.938 227.477 224.739 223.243 220.692L230.714 214.155C236.131 218.824 240.365 224.957 243.416 232.553C246.466 240.087 247.992 248.274 247.992 257.115C247.992 265.769 246.435 274.019 243.322 281.863C240.271 289.646 236.069 295.872 230.714 300.542L223.243 293.537ZM252.205 278.128C255.256 275.886 258.213 272.742 261.077 268.695C264.004 264.586 266.37 259.979 268.175 254.873C269.981 249.706 270.883 244.538 270.883 239.371V233.767H256.408L255.474 222.56H297.967V233.767H283.024V239.371C283.024 244.538 283.865 249.581 285.546 254.5C287.227 259.418 289.406 263.839 292.083 267.761C294.76 271.622 297.656 274.766 300.769 277.194L291.896 285.599C285.733 280.12 280.783 273.303 277.047 265.146C274.993 269.567 272.658 273.552 270.043 277.101C267.428 280.649 264.751 283.638 262.011 286.066L252.205 278.128ZM301.236 244.974V216.957H312.909V296.806H301.236V256.181H290.963V244.974H301.236ZM329.72 216.957V296.806H318.046V216.957H329.72ZM355.424 220.225V250.577H405.389V261.784H379.706V281.397H409.591L410.525 292.603H337.213V281.397H367.565V261.784H347.486C344.684 261.784 343.283 260.384 343.283 257.582V220.225H355.424Z" fill="black"/>
</svg>
