<svg width="640" height="360" viewBox="0 0 640 360" fill="none" xmlns="http://www.w3.org/2000/svg">
<rect width="640" height="360" fill="white"/>
<path d="M188.683 224.542C183.328 219.872 179.094 213.646 175.981 205.863C172.931 198.019 171.405 189.769 171.405 181.115C171.405 172.274 172.931 164.087 175.981 156.553C179.032 148.957 183.266 142.824 188.683 138.155L195.687 144.692C191.515 148.677 188.278 153.813 185.974 160.102C183.733 166.39 182.612 173.395 182.612 181.115C182.612 188.835 183.733 195.84 185.974 202.128C188.278 208.416 191.515 213.553 195.687 217.537L188.683 224.542ZM205.037 171.776C209.457 171.153 213.971 169.97 218.579 168.227C223.186 166.484 227.046 164.429 230.159 162.063C233.334 159.697 235.078 157.331 235.389 154.965H210.173L209.24 143.758H273.212V154.965H247.53C247.841 157.331 249.522 159.666 252.573 161.97C255.686 164.211 259.515 166.172 264.06 167.853C268.667 169.534 273.275 170.686 277.882 171.309L271.812 181.582C266.457 180.648 260.947 179.029 255.281 176.725C249.616 174.422 245.039 171.558 241.553 168.133C237.942 171.745 233.241 174.795 227.451 177.286C221.661 179.714 216.213 181.302 211.107 182.049L205.037 171.776ZM277.882 187.652V198.859H247.53V221.273H235.389V198.859H205.037V187.652H277.882ZM287.243 217.537C291.477 213.49 294.777 208.323 297.142 202.034C299.571 195.684 300.785 188.711 300.785 181.115C300.785 173.519 299.571 166.577 297.142 160.289C294.777 153.938 291.477 148.739 287.243 144.692L294.714 138.155C300.131 142.824 304.365 148.957 307.416 156.553C310.466 164.087 311.992 172.274 311.992 181.115C311.992 189.769 310.435 198.019 307.322 205.863C304.271 213.646 300.069 219.872 294.714 224.542L287.243 217.537ZM316.205 202.128C319.256 199.886 322.213 196.742 325.077 192.695C328.004 188.586 330.37 183.979 332.175 178.873C333.981 173.706 334.883 168.538 334.883 163.371V157.767H320.408L319.474 146.56H361.967V157.767H347.024V163.371C347.024 168.538 347.865 173.581 349.546 178.5C351.227 183.418 353.406 187.839 356.083 191.761C358.76 195.622 361.656 198.766 364.769 201.194L355.896 209.599C349.733 204.12 344.783 197.303 341.047 189.146C338.993 193.567 336.658 197.552 334.043 201.101C331.428 204.649 328.751 207.638 326.011 210.066L316.205 202.128ZM365.236 168.974V140.957H376.909V220.806H365.236V180.181H354.963V168.974H365.236ZM393.72 140.957V220.806H382.046V140.957H393.72ZM419.424 144.225V174.577H469.389V185.784H443.706V205.397H473.591L474.525 216.603H401.213V205.397H431.565V185.784H411.486C408.684 185.784 407.283 184.384 407.283 181.582V144.225H419.424Z" fill="black"/>
</svg>
