<svg width="512" height="512" viewBox="0 0 512 512" fill="none" xmlns="http://www.w3.org/2000/svg">
<rect width="512" height="512" fill="white"/>
<path d="M35.5891 290.329C31.5051 286.767 28.2758 282.018 25.9014 276.082C23.5744 270.099 22.411 263.806 22.411 257.205C22.411 250.462 23.5744 244.217 25.9014 238.471C28.2283 232.678 31.4576 228 35.5891 224.438L40.9316 229.425C37.7498 232.464 35.2804 236.382 33.5233 241.178C31.8137 245.974 30.9589 251.317 30.9589 257.205C30.9589 263.094 31.8137 268.437 33.5233 273.233C35.2804 278.029 37.7498 281.947 40.9316 284.986L35.5891 290.329ZM48.0632 250.082C51.4349 249.607 54.8778 248.705 58.392 247.375C61.9062 246.046 64.8505 244.478 67.2249 242.674C69.6468 240.869 70.9765 239.065 71.214 237.26H51.981L51.2687 228.712H100.063V237.26H80.4742C80.7117 239.065 81.9939 240.846 84.3208 242.603C86.6953 244.312 89.6158 245.808 93.0825 247.09C96.5967 248.373 100.111 249.251 103.625 249.726L98.9948 257.562C94.9108 256.849 90.7081 255.615 86.3866 253.857C82.0651 252.1 78.5747 249.916 75.9153 247.304C73.161 250.058 69.5756 252.385 65.1591 254.285C60.7427 256.137 56.5874 257.348 52.6934 257.918L48.0632 250.082ZM103.625 262.192V270.74H80.4742V287.836H71.214V270.74H48.0632V262.192H103.625ZM110.765 284.986C113.994 281.9 116.511 277.958 118.316 273.162C120.168 268.318 121.094 262.999 121.094 257.205C121.094 251.412 120.168 246.117 118.316 241.32C116.511 236.477 113.994 232.511 110.765 229.425L116.464 224.438C120.595 228 123.824 232.678 126.151 238.471C128.478 244.217 129.642 250.462 129.642 257.205C129.642 263.806 128.455 270.099 126.08 276.082C123.753 282.018 120.548 286.767 116.464 290.329L110.765 284.986ZM162.061 230.849V230.992C163.486 231.277 164.198 232.298 164.198 234.055C164.008 238.661 163.533 242.935 162.773 246.877H170.253V226.575H179.157V287.479H170.253V256.137H161.349V252.789C159.687 258.44 157.289 263.331 154.154 267.463C151.067 271.547 147.055 275.489 142.116 279.288L135.349 273.233C142.709 268.342 148.028 262.121 151.305 254.57C145.844 255.662 141.119 256.303 137.13 256.493L136.417 247.945C143.73 247.66 149.572 247.185 153.941 246.52C154.51 244.051 154.89 241.677 155.08 239.397H138.198L137.486 230.849H162.061ZM191.979 226.575V287.479H183.075V226.575H191.979ZM214.79 279.288C203.393 279.288 197.694 270.977 197.694 254.356C197.694 237.498 203.393 229.068 214.79 229.068C220.299 229.068 224.454 231.205 227.256 235.479C230.105 239.706 231.53 245.998 231.53 254.356C231.53 270.977 225.95 279.288 214.79 279.288ZM214.79 271.096C219.777 271.096 222.27 265.516 222.27 254.356C222.27 243.196 219.777 237.616 214.79 237.616C209.567 237.616 206.955 243.196 206.955 254.356C206.955 265.516 209.567 271.096 214.79 271.096ZM250.763 226.575V287.479H241.146V226.575H250.763ZM252.56 273.233C254.887 271.523 257.143 269.125 259.328 266.038C261.56 262.904 263.364 259.39 264.741 255.496C266.118 251.554 266.807 247.613 266.807 243.671V239.397H255.766L255.054 230.849H287.465V239.397H276.067V243.671C276.067 247.613 276.708 251.459 277.991 255.211C279.273 258.963 280.935 262.334 282.977 265.326C285.019 268.27 287.227 270.668 289.602 272.521L282.835 278.932C278.133 274.752 274.358 269.552 271.508 263.331C269.941 266.703 268.161 269.742 266.166 272.449C264.171 275.156 262.129 277.436 260.04 279.288L252.56 273.233ZM289.958 247.945V226.575H298.862V287.479H289.958V256.493H282.122V247.945H289.958ZM311.684 226.575V287.479H302.78V226.575H311.684ZM334.495 279.288C323.098 279.288 317.399 270.977 317.399 254.356C317.399 237.498 323.098 229.068 334.495 229.068C340.004 229.068 344.159 231.205 346.961 235.479C349.81 239.706 351.235 245.998 351.235 254.356C351.235 270.977 345.655 279.288 334.495 279.288ZM334.495 271.096C339.481 271.096 341.975 265.516 341.975 254.356C341.975 243.196 339.481 237.616 334.495 237.616C329.271 237.616 326.66 243.196 326.66 254.356C326.66 265.516 329.271 271.096 334.495 271.096ZM370.468 226.575V287.479H360.851V226.575H370.468ZM402.896 231.205V239.397H387.58V249.014H400.759V257.562H387.58V268.175C394.324 267.89 400.26 267.202 405.389 266.11L406.101 274.658C399.69 276.177 391.498 277.008 381.526 277.151C379.389 277.151 378.32 276.082 378.32 273.945V231.205H402.896ZM409.663 247.945V226.575H418.567V287.479H409.663V256.849H403.608V247.945H409.663ZM431.389 226.575V287.479H422.485V226.575H431.389ZM488.392 229.781C488.392 237.759 488.226 244.882 487.893 251.151C487.561 257.372 486.896 263.426 485.899 269.315L476.638 268.603C477.303 264.614 477.826 260.435 478.206 256.066C473.362 256.731 467.378 257.277 460.255 257.704C453.179 258.084 446.531 258.274 440.31 258.274L439.597 249.37C446.103 249.37 453.084 249.227 460.54 248.942C467.996 248.61 474.074 248.23 478.775 247.803L479.06 238.329H441.378V229.781H488.392ZM492.31 274.658L493.022 283.205H437.104V274.658H492.31Z" fill="black"/>
</svg>
