<svg width="640" height="360" viewBox="0 0 640 360" fill="none" xmlns="http://www.w3.org/2000/svg">
<rect width="640" height="360" fill="white"/>
<path d="M84.0204 216.084C79.638 212.262 76.1728 207.166 73.6249 200.796C71.1279 194.375 69.8794 187.623 69.8794 180.54C69.8794 173.304 71.1279 166.603 73.6249 160.437C76.1219 154.22 79.587 149.2 84.0204 145.378L89.7533 150.729C86.3391 153.99 83.6892 158.194 81.8037 163.341C79.9692 168.488 79.052 174.221 79.052 180.54C79.052 186.859 79.9692 192.592 81.8037 197.738C83.6892 202.885 86.3391 207.089 89.7533 210.351L84.0204 216.084ZM97.406 172.896C101.024 172.386 104.719 171.418 108.49 169.991C112.26 168.565 115.42 166.883 117.968 164.947C120.567 163.01 121.994 161.074 122.248 159.137H101.61L100.846 149.965H153.206V159.137H132.185C132.44 161.074 133.816 162.985 136.313 164.87C138.861 166.705 141.995 168.31 145.715 169.686C149.486 171.062 153.257 172.004 157.028 172.514L152.059 180.922C147.677 180.158 143.167 178.833 138.53 176.947C133.892 175.062 130.147 172.718 127.293 169.915C124.338 172.871 120.49 175.368 115.751 177.406C111.012 179.393 106.553 180.693 102.375 181.304L97.406 172.896ZM157.028 185.891V195.063H132.185V213.408H122.248V195.063H97.406V185.891H157.028ZM164.689 210.351C168.155 207.038 170.855 202.809 172.792 197.662C174.779 192.464 175.773 186.757 175.773 180.54C175.773 174.323 174.779 168.641 172.792 163.494C170.855 158.296 168.155 154.041 164.689 150.729L170.804 145.378C175.238 149.2 178.703 154.22 181.2 160.437C183.697 166.603 184.945 173.304 184.945 180.54C184.945 187.623 183.671 194.375 181.124 200.796C178.627 207.166 175.187 212.262 170.804 216.084L164.689 210.351ZM219.734 152.258V152.411C221.262 152.716 222.027 153.812 222.027 155.698C221.823 160.64 221.313 165.227 220.498 169.456H228.524V147.672H238.079V213.026H228.524V179.393H218.969V175.801C217.186 181.865 214.612 187.114 211.249 191.547C207.937 195.929 203.631 200.159 198.331 204.236L191.069 197.738C198.968 192.49 204.675 185.814 208.192 177.712C202.331 178.884 197.261 179.572 192.98 179.775L192.216 170.603C200.064 170.297 206.332 169.788 211.02 169.074C211.631 166.424 212.039 163.876 212.243 161.43H194.127L193.363 152.258H219.734ZM251.838 147.672V213.026H242.283V147.672H251.838ZM276.316 204.236C264.086 204.236 257.971 195.318 257.971 177.482C257.971 159.392 264.086 150.347 276.316 150.347C282.227 150.347 286.686 152.64 289.692 157.226C292.75 161.762 294.279 168.514 294.279 177.482C294.279 195.318 288.291 204.236 276.316 204.236ZM276.316 195.445C281.666 195.445 284.342 189.458 284.342 177.482C284.342 165.507 281.666 159.519 276.316 159.519C270.71 159.519 267.908 165.507 267.908 177.482C267.908 189.458 270.71 195.445 276.316 195.445ZM314.917 147.672V213.026H304.598V147.672H314.917ZM316.846 197.738C319.343 195.904 321.763 193.33 324.107 190.018C326.502 186.655 328.439 182.884 329.917 178.705C331.394 174.476 332.133 170.246 332.133 166.017V161.43H320.285L319.521 152.258H354.3V161.43H342.07V166.017C342.07 170.246 342.758 174.374 344.134 178.4C345.51 182.425 347.293 186.043 349.485 189.254C351.676 192.413 354.046 194.987 356.593 196.974L349.332 203.853C344.287 199.369 340.236 193.789 337.178 187.114C335.497 190.732 333.586 193.993 331.445 196.898C329.305 199.802 327.114 202.248 324.872 204.236L316.846 197.738ZM356.976 170.603V147.672H366.53V213.026H356.976V179.775H348.567V170.603H356.976ZM380.289 147.672V213.026H370.734V147.672H380.289ZM404.767 204.236C392.537 204.236 386.422 195.318 386.422 177.482C386.422 159.392 392.537 150.347 404.767 150.347C410.678 150.347 415.137 152.64 418.144 157.226C421.201 161.762 422.73 168.514 422.73 177.482C422.73 195.318 416.743 204.236 404.767 204.236ZM404.767 195.445C410.118 195.445 412.793 189.458 412.793 177.482C412.793 165.507 410.118 159.519 404.767 159.519C399.162 159.519 396.359 165.507 396.359 177.482C396.359 189.458 399.162 195.445 404.767 195.445ZM443.368 147.672V213.026H433.049V147.672H443.368ZM478.166 152.64V161.43H461.732V171.749H475.873V180.922H461.732V192.311C468.968 192.006 475.337 191.267 480.841 190.095L481.605 199.267C474.726 200.898 465.936 201.79 455.234 201.942C452.941 201.942 451.795 200.796 451.795 198.503V152.64H478.166ZM485.427 170.603V147.672H494.982V213.026H485.427V180.158H478.93V170.603H485.427ZM508.741 147.672V213.026H499.186V147.672H508.741ZM569.909 151.111C569.909 159.672 569.731 167.316 569.374 174.043C569.017 180.718 568.304 187.215 567.234 193.534L557.297 192.77C558.01 188.489 558.571 184.005 558.979 179.317C553.781 180.03 547.36 180.616 539.716 181.075C532.123 181.483 524.989 181.686 518.314 181.686L517.549 172.132C524.53 172.132 532.021 171.979 540.022 171.673C548.022 171.316 554.545 170.909 559.59 170.45L559.896 160.284H519.46V151.111H569.909ZM574.113 199.267L574.878 208.44H514.874V199.267H574.113Z" fill="black"/>
</svg>
