<svg width="640" height="360" viewBox="0 0 640 360" fill="none" xmlns="http://www.w3.org/2000/svg">
<rect width="640" height="360" fill="white"/>
<path d="M148.683 224.542C143.328 219.872 139.094 213.646 135.981 205.863C132.931 198.019 131.405 189.769 131.405 181.115C131.405 172.274 132.931 164.087 135.981 156.553C139.032 148.957 143.266 142.824 148.683 138.155L155.687 144.692C151.515 148.677 148.278 153.813 145.974 160.102C143.733 166.39 142.612 173.395 142.612 181.115C142.612 188.835 143.733 195.84 145.974 202.128C148.278 208.416 151.515 213.553 155.687 217.537L148.683 224.542ZM165.037 171.776C169.457 171.153 173.971 169.97 178.579 168.227C183.186 166.484 187.046 164.429 190.159 162.063C193.334 159.697 195.078 157.331 195.389 154.965H170.173L169.24 143.758H233.212V154.965H207.53C207.841 157.331 209.522 159.666 212.573 161.97C215.686 164.211 219.515 166.172 224.06 167.853C228.667 169.534 233.275 170.686 237.882 171.309L231.812 181.582C226.457 180.648 220.947 179.029 215.281 176.725C209.616 174.422 205.039 171.558 201.553 168.133C197.942 171.745 193.241 174.795 187.451 177.286C181.661 179.714 176.213 181.302 171.107 182.049L165.037 171.776ZM237.882 187.652V198.859H207.53V221.273H195.389V198.859H165.037V187.652H237.882ZM247.243 217.537C251.477 213.49 254.777 208.323 257.142 202.034C259.571 195.684 260.785 188.711 260.785 181.115C260.785 173.519 259.571 166.577 257.142 160.289C254.777 153.938 251.477 148.739 247.243 144.692L254.714 138.155C260.131 142.824 264.365 148.957 267.416 156.553C270.466 164.087 271.992 172.274 271.992 181.115C271.992 189.769 270.435 198.019 267.322 205.863C264.271 213.646 260.069 219.872 254.714 224.542L247.243 217.537ZM328.504 146.56V157.767H299.086V170.375H327.103V181.582H299.086V194.937C305.374 194.874 311.445 194.625 317.297 194.19C323.212 193.692 328.193 193.069 332.24 192.322L333.174 203.996C327.819 204.867 321.313 205.614 313.655 206.237C306.059 206.86 298.401 207.202 290.681 207.264C287.879 207.264 286.478 205.863 286.478 203.062V146.56H328.504ZM352.319 140.957V220.806H339.711V140.957H352.319ZM392.966 146.56V146.747C394.834 147.12 395.768 148.459 395.768 150.763C395.519 156.802 394.896 162.405 393.9 167.573H403.706V140.957H415.38V220.806H403.706V179.714H392.032V175.325C389.853 182.734 386.709 189.146 382.6 194.563C378.553 199.918 373.292 205.085 366.817 210.066L357.944 202.128C367.595 195.715 374.568 187.559 378.864 177.659C371.704 179.091 365.509 179.932 360.279 180.181L359.345 168.974C368.933 168.6 376.591 167.978 382.319 167.106C383.067 163.869 383.565 160.756 383.814 157.767H361.68L360.746 146.56H392.966ZM432.19 140.957V220.806H420.516V140.957H432.19ZM462.097 210.066C447.155 210.066 439.683 199.17 439.683 177.379C439.683 155.277 447.155 144.225 462.097 144.225C469.32 144.225 474.767 147.027 478.441 152.631C482.176 158.172 484.044 166.421 484.044 177.379C484.044 199.17 476.729 210.066 462.097 210.066ZM462.097 199.326C468.635 199.326 471.903 192.01 471.903 177.379C471.903 162.748 468.635 155.432 462.097 155.432C455.249 155.432 451.824 162.748 451.824 177.379C451.824 192.01 455.249 199.326 462.097 199.326ZM509.26 140.957V220.806H496.652V140.957H509.26Z" fill="black"/>
</svg>
