<svg width="512" height="512" viewBox="0 0 512 512" fill="none" xmlns="http://www.w3.org/2000/svg">
<rect width="512" height="512" fill="white"/>
<path d="M84.6826 300.542C79.3281 295.872 75.0944 289.646 71.9814 281.863C68.9306 274.019 67.4052 265.769 67.4052 257.115C67.4052 248.274 68.9306 240.087 71.9814 232.553C75.0321 224.957 79.2659 218.824 84.6826 214.155L91.6869 220.692C87.5154 224.677 84.2779 229.813 81.9742 236.102C79.7328 242.39 78.6121 249.395 78.6121 257.115C78.6121 264.835 79.7328 271.84 81.9742 278.128C84.2779 284.416 87.5154 289.553 91.6869 293.537L84.6826 300.542ZM101.037 247.776C105.457 247.153 109.971 245.97 114.579 244.227C119.186 242.484 123.046 240.429 126.159 238.063C129.334 235.697 131.078 233.331 131.389 230.965H106.173L105.24 219.758H169.212V230.965H143.53C143.841 233.331 145.522 235.666 148.573 237.97C151.686 240.211 155.515 242.172 160.06 243.853C164.667 245.534 169.275 246.686 173.882 247.309L167.812 257.582C162.457 256.648 156.947 255.029 151.281 252.725C145.616 250.422 141.039 247.558 137.553 244.133C133.942 247.745 129.241 250.795 123.451 253.286C117.661 255.714 112.213 257.302 107.107 258.049L101.037 247.776ZM173.882 263.652V274.859H143.53V297.273H131.389V274.859H101.037V263.652H173.882ZM183.243 293.537C187.477 289.49 190.777 284.323 193.142 278.034C195.571 271.684 196.785 264.711 196.785 257.115C196.785 249.519 195.571 242.577 193.142 236.289C190.777 229.938 187.477 224.739 183.243 220.692L190.714 214.155C196.131 218.824 200.365 224.957 203.416 232.553C206.466 240.087 207.992 248.274 207.992 257.115C207.992 265.769 206.435 274.019 203.322 281.863C200.271 289.646 196.069 295.872 190.714 300.542L183.243 293.537ZM264.504 222.56V233.767H235.086V246.375H263.103V257.582H235.086V270.937C241.374 270.874 247.445 270.625 253.297 270.19C259.212 269.692 264.193 269.069 268.24 268.322L269.174 279.996C263.819 280.867 257.313 281.614 249.655 282.237C242.059 282.86 234.401 283.202 226.681 283.264C223.879 283.264 222.478 281.863 222.478 279.062V222.56H264.504ZM288.319 216.957V296.806H275.711V216.957H288.319ZM328.966 222.56V222.747C330.834 223.12 331.768 224.459 331.768 226.763C331.519 232.802 330.896 238.405 329.9 243.573H339.706V216.957H351.38V296.806H339.706V255.714H328.032V251.325C325.853 258.734 322.709 265.146 318.6 270.563C314.553 275.918 309.292 281.085 302.817 286.066L293.944 278.128C303.595 271.715 310.568 263.559 314.864 253.659C307.704 255.091 301.509 255.932 296.279 256.181L295.345 244.974C304.933 244.6 312.591 243.978 318.319 243.106C319.067 239.869 319.565 236.756 319.814 233.767H297.68L296.746 222.56H328.966ZM368.19 216.957V296.806H356.516V216.957H368.19ZM398.097 286.066C383.155 286.066 375.683 275.17 375.683 253.379C375.683 231.277 383.155 220.225 398.097 220.225C405.32 220.225 410.767 223.027 414.441 228.631C418.176 234.172 420.044 242.421 420.044 253.379C420.044 275.17 412.729 286.066 398.097 286.066ZM398.097 275.326C404.635 275.326 407.903 268.01 407.903 253.379C407.903 238.748 404.635 231.432 398.097 231.432C391.249 231.432 387.824 238.748 387.824 253.379C387.824 268.01 391.249 275.326 398.097 275.326ZM445.26 216.957V296.806H432.652V216.957H445.26Z" fill="black"/>
</svg>
